<mxfile host="app.diagrams.net" modified="2023-08-14T17:38:18.151Z" agent="Mozilla/5.0 (Windows NT 10.0; Win64; x64; rv:102.0) Gecko/20100101 Firefox/102.0" etag="T_yifIqETGiNXaTqfzmy" version="21.6.2" type="device">
  <diagram name="Seite-1" id="frWDn97vgVrBreLdu65A">
    <mxGraphModel dx="1221" dy="644" grid="1" gridSize="10" guides="1" tooltips="1" connect="1" arrows="1" fold="1" page="1" pageScale="1" pageWidth="1169" pageHeight="827" math="0" shadow="0">
      <root>
        <mxCell id="0" />
        <mxCell id="1" parent="0" />
        <mxCell id="5qNCbVk7OrzwdI0jPyo2-2" value="" style="html=1;shadow=0;dashed=0;align=center;verticalAlign=top;shape=mxgraph.arrows2.arrow;dy=0.52;dx=35;direction=south;notch=0;fillColor=#ffcc99;strokeColor=#36393d;" vertex="1" parent="1">
          <mxGeometry x="40" y="40" width="110" height="50" as="geometry" />
        </mxCell>
        <mxCell id="5qNCbVk7OrzwdI0jPyo2-3" value="&lt;b&gt;&lt;font face=&quot;Verdana&quot;&gt;START&lt;br&gt;HERE&lt;br&gt;&lt;/font&gt;&lt;/b&gt;" style="text;html=1;strokeColor=none;fillColor=none;align=center;verticalAlign=middle;whiteSpace=wrap;rounded=0;" vertex="1" parent="1">
          <mxGeometry x="65" y="44" width="60" height="30" as="geometry" />
        </mxCell>
      </root>
    </mxGraphModel>
  </diagram>
</mxfile>
